<svg width="62" height="11" viewBox="0 0 62 11" fill="none" xmlns="http://www.w3.org/2000/svg">
<g clip-path="url(#clip0_3_1001)">
<path d="M42.9266 8.54662C41.5048 8.54662 40.4045 7.80519 40.3818 6.52004H41.8534C41.8942 7.06376 42.2564 7.42773 42.8949 7.42773C43.5424 7.42773 43.9272 7.08622 43.9272 6.60092C43.9272 5.12705 40.3909 6.01677 40.3999 3.54983C40.3999 2.3231 41.4006 1.58167 42.8179 1.58167C44.2216 1.58167 45.186 2.29164 45.2721 3.52286H43.7597C43.728 3.07351 43.3658 2.72302 42.7771 2.71403C42.2383 2.69606 41.8353 2.95668 41.8353 3.51388C41.8353 4.87991 45.349 4.11601 45.349 6.51555C45.3536 7.58051 44.4887 8.54662 42.9266 8.54662Z" fill="white"/>
<path d="M49.1843 2.9386C50.5789 2.9386 51.6701 4.02154 51.6701 5.7066C51.6701 7.39167 50.5789 8.51505 49.1843 8.51505C48.3285 8.51505 47.7217 8.09716 47.3866 7.65679V11H46.0101V3.02847H47.3866V3.81034C47.7081 3.34751 48.3375 2.9386 49.1843 2.9386ZM48.8175 4.13837C48.0794 4.13837 47.3821 4.70455 47.3821 5.72907C47.3821 6.75359 48.0794 7.31978 48.8175 7.31978C49.5646 7.31978 50.2619 6.73562 50.2619 5.7111C50.2619 4.68658 49.5646 4.13837 48.8175 4.13837Z" fill="white"/>
<path d="M55.0072 8.51508C53.436 8.51508 52.2496 7.42315 52.2496 5.7291C52.2496 4.02156 53.4767 2.94312 55.0479 2.94312C56.6191 2.94312 57.8462 4.02605 57.8462 5.7291C57.8462 7.42315 56.5874 8.51508 55.0072 8.51508ZM55.0072 7.32429C55.7317 7.32429 56.429 6.79855 56.429 5.7246C56.429 4.64166 55.7498 4.12491 55.0253 4.12491C54.3008 4.12491 53.6397 4.64166 53.6397 5.7246C53.6443 6.79855 54.2691 7.32429 55.0072 7.32429Z" fill="white"/>
<path d="M58.9963 4.14743H58.3488V3.02854H58.9963V1.69397H60.3819V3.02854H61.5999V4.14743H60.3819V6.75816C60.3819 7.11765 60.5313 7.27492 60.9615 7.27492H61.5999V8.42526H60.7351C59.6937 8.42526 58.9963 7.98489 58.9963 6.74918V4.14743Z" fill="white"/>
<path d="M17.04 1.53662C18.5569 1.53662 19.7885 2.34096 20.2458 3.72946H18.6701C18.3486 3.0779 17.76 2.75886 17.0264 2.75886C15.831 2.75886 14.9843 3.62161 14.9843 5.00112C14.9843 6.37164 15.8356 7.24339 17.0264 7.24339C17.76 7.24339 18.3486 6.92435 18.6701 6.2638H20.2458C19.784 7.66128 18.5524 8.45664 17.04 8.45664C15.0749 8.45664 13.5761 7.0277 13.5761 5.00112C13.5761 2.97455 15.0703 1.53662 17.04 1.53662Z" fill="white"/>
<path d="M23.3747 8.48819C21.799 8.48819 20.6579 7.40076 20.6579 5.7112C20.6579 4.01265 21.7718 2.9342 23.3747 2.9342C24.9414 2.9342 26.0462 3.99018 26.0462 5.59437C26.0462 5.76961 26.0372 5.94486 26.0055 6.12011H22.0435C22.1114 6.91546 22.6593 7.36032 23.343 7.36032C23.9317 7.36032 24.2531 7.06824 24.4297 6.70876H25.9059C25.6161 7.70183 24.715 8.48819 23.3747 8.48819ZM22.0571 5.20792H24.629C24.6109 4.49795 24.0403 4.05309 23.3385 4.05309C22.6819 4.05309 22.1612 4.47099 22.0571 5.20792Z" fill="white"/>
<path d="M26.6303 1.21765H27.9977V8.39829H26.6303V1.21765Z" fill="white"/>
<path d="M31.3077 8.48819C29.732 8.48819 28.5909 7.40076 28.5909 5.7112C28.5909 4.01265 29.7048 2.9342 31.3077 2.9342C32.8744 2.9342 33.9792 3.99018 33.9792 5.59437C33.9792 5.76961 33.9702 5.94486 33.9385 6.12011H29.9765C30.0444 6.91546 30.5923 7.36032 31.276 7.36032C31.8646 7.36032 32.1861 7.06824 32.3627 6.70876H33.8388C33.5491 7.70183 32.648 8.48819 31.3077 8.48819ZM29.9855 5.20792H32.5574C32.5393 4.49795 31.9688 4.05309 31.267 4.05309C30.6149 4.05309 30.0942 4.47099 29.9855 5.20792Z" fill="white"/>
<path d="M37.7239 2.93417C39.114 2.93417 40.1962 4.01262 40.1962 5.6887C40.1962 7.36927 39.1095 8.48367 37.7239 8.48367C36.8726 8.48367 36.2659 8.09722 35.9353 7.6299V8.39829H34.5634V1.21765H35.9308V3.81041C36.2659 3.31612 36.8998 2.93417 37.7239 2.93417ZM37.3616 4.12945C36.6281 4.12945 35.9353 4.69114 35.9353 5.71117C35.9353 6.7312 36.6281 7.29288 37.3616 7.29288C38.1042 7.29288 38.8015 6.70873 38.8015 5.69319C38.797 4.67317 38.1042 4.12945 37.3616 4.12945Z" fill="white"/>
</g>
<path d="M5.36536 10.0607C2.42217 10.0383 0.262318 7.6612 0.321182 4.91566C0.380046 2.20158 2.70743 -0.00473662 5.44233 0.0491856C8.30402 0.107601 10.5046 2.3948 10.4095 5.25268C10.3235 7.85892 8.17271 10.0607 5.36536 10.0607ZM8.81116 5.05496C6.83243 4.74042 5.72307 3.63951 5.36536 1.68932C5.01218 3.64849 3.88471 4.73592 1.91956 5.05496C3.91187 5.36951 5.0167 6.4839 5.36989 8.41162C5.71854 6.47042 6.83243 5.3785 8.81116 5.05496Z" fill="white"/>
<defs>
<clipPath id="clip0_3_1001">
<rect width="59.7739" height="10.9507" fill="white" transform="translate(1.82608 0.0493164)"/>
</clipPath>
</defs>
</svg>
